<svg width="105" height="98" viewBox="0 0 105 98" fill="none" xmlns="http://www.w3.org/2000/svg">
<path d="M86.6354 96.4916L77.2188 87.6583L82.1625 83.0208L91.5792 91.8541C92.9917 93.1791 92.9917 95.1666 91.5792 96.4916C90.4021 97.5958 88.0479 97.5958 86.6354 96.4916Z" fill="#37474F"/>
<path d="M18.3649 96.4916L27.7816 87.6583L22.8379 83.0208L13.4212 91.8541C12.0087 93.1791 12.0087 95.1666 13.4212 96.4916C14.5983 97.5958 16.9524 97.5958 18.3649 96.4916Z" fill="#37474F"/>
<path d="M52.4998 95.1666C78.5033 95.1666 99.5832 75.3925 99.5832 50.9999C99.5832 26.6073 78.5033 6.83325 52.4998 6.83325C26.4964 6.83325 5.4165 26.6073 5.4165 50.9999C5.4165 75.3925 26.4964 95.1666 52.4998 95.1666Z" fill="#C62828"/>
<path d="M52.5002 86.3334C73.3029 86.3334 90.1668 70.5141 90.1668 51.0001C90.1668 31.486 73.3029 15.6667 52.5002 15.6667C31.6974 15.6667 14.8335 31.486 14.8335 51.0001C14.8335 70.5141 31.6974 86.3334 52.5002 86.3334Z" fill="#EEEEEE"/>
<path d="M31.539 71.9342L30.2065 70.6842L51.8437 50.3875L53.1762 51.6352L31.539 71.9342Z" fill="#E53935"/>
<path d="M50.146 22.2917H54.8543V51.0001H50.146V22.2917Z" fill="black"/>
<path d="M69.6507 63.4868L65.8252 67.0776L50.5137 52.7145L54.3415 49.1216L69.6507 63.4868Z" fill="black"/>
<path d="M52.4998 55.4166C55.1002 55.4166 57.2082 53.4392 57.2082 50.9999C57.2082 48.5607 55.1002 46.5833 52.4998 46.5833C49.8995 46.5833 47.7915 48.5607 47.7915 50.9999C47.7915 53.4392 49.8995 55.4166 52.4998 55.4166Z" fill="black"/>
<path d="M52.5002 53.2084C53.8003 53.2084 54.8543 52.2197 54.8543 51.0001C54.8543 49.7805 53.8003 48.7917 52.5002 48.7917C51.2 48.7917 50.146 49.7805 50.146 51.0001C50.146 52.2197 51.2 53.2084 52.5002 53.2084Z" fill="#C62828"/>
<path d="M47.7915 0.208252H57.2082V6.83325H47.7915V0.208252Z" fill="#37474F"/>
<path d="M100.524 33.7753C106.409 26.0461 105.468 15.2253 98.1696 8.37945C90.8717 1.53362 79.3363 0.650283 71.0967 6.17112L100.524 33.7753Z" fill="#37474F"/>
<path d="M4.47417 33.7753C-1.41125 26.0461 -0.46958 15.2253 6.82834 8.37945C14.1263 1.53362 25.6617 0.650283 33.9012 6.17112L4.47417 33.7753Z" fill="#37474F"/>
</svg>
