<svg width="36" height="37" viewBox="0 0 36 37" fill="none" xmlns="http://www.w3.org/2000/svg">
<path d="M18 3.3335C9.05517 3.3335 1.5 10.8887 1.5 19.8335C1.5 28.7783 9.05517 36.3335 18 36.3335C26.9448 36.3335 34.5 28.7783 34.5 19.8335C34.5 10.8887 26.9448 3.3335 18 3.3335ZM25.3333 21.6668H19.8333V27.1668H16.1667V21.6668H10.6667V18.0002H16.1667V12.5002H19.8333V18.0002H25.3333V21.6668Z" fill="#575555"/>
<path d="M27.6874 2.7962L30.276 0.200195L35.7944 5.7002L33.2039 8.29803L27.6874 2.7962Z" fill="#575555"/>
<path d="M5.68369 0.205566L8.28336 2.79423L2.80169 8.29423L0.203857 5.70373L5.68369 0.205566Z" fill="#575555"/>
</svg>
