<svg width="30" height="30" viewBox="0 0 30 30" fill="none" xmlns="http://www.w3.org/2000/svg">
<path d="M25.9167 17.4166C27.2514 17.4166 28.3333 16.3346 28.3333 14.9999C28.3333 13.6652 27.2514 12.5833 25.9167 12.5833C24.582 12.5833 23.5 13.6652 23.5 14.9999C23.5 16.3346 24.582 17.4166 25.9167 17.4166Z" fill="black"/>
<path d="M15 17.4166C16.3347 17.4166 17.4167 16.3346 17.4167 14.9999C17.4167 13.6652 16.3347 12.5833 15 12.5833C13.6654 12.5833 12.5834 13.6652 12.5834 14.9999C12.5834 16.3346 13.6654 17.4166 15 17.4166Z" fill="black"/>
<path d="M4.08332 17.4166C5.41801 17.4166 6.49999 16.3346 6.49999 14.9999C6.49999 13.6652 5.41801 12.5833 4.08332 12.5833C2.74864 12.5833 1.66666 13.6652 1.66666 14.9999C1.66666 16.3346 2.74864 17.4166 4.08332 17.4166Z" fill="black"/>
</svg>
