<svg width="32" height="36" viewBox="0 0 32 36" fill="none" xmlns="http://www.w3.org/2000/svg">
<path d="M23 0.5L31.75 9.25V33.7378C31.7516 33.9676 31.7079 34.1954 31.6215 34.4084C31.535 34.6213 31.4075 34.8151 31.2461 34.9788C31.0847 35.1424 30.8927 35.2727 30.681 35.3621C30.4693 35.4515 30.2421 35.4984 30.0122 35.5H1.98775C1.52816 35.4968 1.08828 35.3129 0.763131 34.9881C0.437981 34.6633 0.253666 34.2236 0.25 33.764V2.236C0.25 1.277 1.03225 0.5 1.99825 0.5H23ZM21.25 4H3.75V32H28.25V11H21.25V4ZM17.75 12.75V19.75H23V23.25H14.25V12.75H17.75Z" fill="#575555"/>
</svg>
