<svg width="66" height="76" viewBox="0 0 66 76" fill="none" xmlns="http://www.w3.org/2000/svg">
<path d="M13.3958 53.9854C11.3911 54.2792 8.09108 54.8261 5.89577 52.3354C3.70045 49.8448 1.80202 43.8308 0.967642 38.4558C-0.263608 30.5339 0.958267 23.8573 4.40514 19.6573C6.43639 17.1839 9.10202 15.7511 12.1145 15.5229C14.6942 15.3245 18.5489 16.3339 22.2708 22.2714C24.602 25.9917 26.3755 30.9339 27.1364 35.8292C28.0551 41.7386 28.9504 48.0448 25.8176 50.3058C24.0504 51.5823 22.7817 52.0245 19.7833 52.7386C17.3176 53.3245 15.402 53.6901 13.3958 53.9854Z" fill="#D9870E"/>
<path d="M9.83053 59.069L26.8446 55.5596C28.2821 55.2627 29.4352 56.0533 29.9696 58.4221C31.7227 66.1971 29.2102 75.5002 21.3415 75.5002C13.8899 75.5002 8.92428 67.0065 8.11334 62.4408C7.74303 60.3705 8.27115 59.3893 9.83053 59.069Z" fill="#D9870E"/>
<path d="M46.2173 37.7408C43.2189 37.0298 41.9501 36.5845 40.1829 35.308C37.0501 33.047 37.9454 26.7408 38.8642 20.8314C39.6251 15.9361 41.3986 10.9876 43.7298 7.27358C47.4486 1.33608 51.3032 0.326708 53.8861 0.525145C56.8954 0.754833 59.5626 2.18452 61.5939 4.65796C65.0439 8.85796 66.2657 15.5345 65.0314 23.4564C64.1954 28.8314 62.3032 34.8251 60.0954 37.3361C57.8876 39.847 54.6064 39.2798 52.5954 38.9861C50.5845 38.6923 48.6814 38.3251 46.2173 37.7408Z" fill="#D9870E"/>
<path d="M56.1696 44.069L39.1555 40.5596C37.718 40.2627 36.5649 41.0533 36.0305 43.4221C34.279 51.1971 36.7914 60.5002 44.6602 60.5002C52.1118 60.5002 57.0774 52.0065 57.8883 47.4408C58.2571 45.3705 57.729 44.3893 56.1696 44.069Z" fill="#D9870E"/>
</svg>
