<svg width="32" height="35" viewBox="0 0 32 35" fill="none" xmlns="http://www.w3.org/2000/svg">
<path d="M13.4625 1.43255C14.1726 0.834085 15.0714 0.505859 16 0.505859C16.9286 0.505859 17.8274 0.834085 18.5375 1.43255L30.35 11.3988C31.239 12.146 31.75 13.2468 31.75 14.4088V31.5623C31.75 32.3745 31.4273 33.1535 30.853 33.7278C30.2787 34.3021 29.4997 34.6248 28.6875 34.6248H23.4375C22.6253 34.6248 21.8463 34.3021 21.272 33.7278C20.6977 33.1535 20.375 32.3745 20.375 31.5623V22.8123C20.375 22.4642 20.2367 22.1304 19.9906 21.8842C19.7444 21.6381 19.4106 21.4998 19.0625 21.4998H12.9375C12.5894 21.4998 12.2556 21.6381 12.0094 21.8842C11.7633 22.1304 11.625 22.4642 11.625 22.8123V31.5623C11.625 32.3745 11.3023 33.1535 10.728 33.7278C10.1537 34.3021 9.37473 34.6248 8.5625 34.6248H3.3125C2.91033 34.6248 2.51209 34.5456 2.14053 34.3917C1.76897 34.2378 1.43137 34.0122 1.14699 33.7278C0.862606 33.4434 0.637024 33.1058 0.483119 32.7343C0.329214 32.3627 0.25 31.9645 0.25 31.5623V14.407C0.25 13.2468 0.761 12.146 1.65 11.397L13.4625 1.43255Z" fill="#575555"/>
</svg>
