<svg width="44" height="32" viewBox="0 0 44 32" fill="none" xmlns="http://www.w3.org/2000/svg">
<path d="M5.07692 0.769043C2.27446 0.769043 0 3.0435 0 5.84597V26.1537C0 28.9561 2.27446 31.2306 5.07692 31.2306H38.9231C41.7255 31.2306 44 28.9561 44 26.1537V5.84597C44 3.0435 41.7255 0.769043 38.9231 0.769043H5.07692ZM5.07692 4.15366H38.9231C39.8555 4.15366 40.6154 4.91351 40.6154 5.84597V6.69212L22 16.741L3.38462 6.69212V5.84597C3.38462 4.91351 4.14446 4.15366 5.07692 4.15366ZM3.38462 7.16766L14.4371 15.7883L3.59615 26.8949L16.8182 17.4806L22 20.8127L27.1835 17.4806L40.4038 26.8949L29.5629 15.7883L40.6154 7.16766V26.1537C40.606 26.4142 40.5334 26.6686 40.4038 26.8949C40.1246 27.4449 39.5814 27.846 38.9231 27.846H5.07692C4.41862 27.846 3.87538 27.4449 3.59615 26.8932C3.46684 26.6674 3.39425 26.4137 3.38462 26.1537V7.16766Z" fill="black"/>
</svg>
