<svg width="34" height="34" viewBox="0 0 34 34" fill="none" xmlns="http://www.w3.org/2000/svg">
<path d="M17 19.2344C18.234 19.2344 19.2344 18.234 19.2344 17C19.2344 15.766 18.234 14.7656 17 14.7656C15.766 14.7656 14.7656 15.766 14.7656 17C14.7656 18.234 15.766 19.2344 17 19.2344Z" fill="black"/>
<path d="M24.7344 19.2344C25.9684 19.2344 26.9688 18.234 26.9688 17C26.9688 15.766 25.9684 14.7656 24.7344 14.7656C23.5004 14.7656 22.5 15.766 22.5 17C22.5 18.234 23.5004 19.2344 24.7344 19.2344Z" fill="black"/>
<path d="M9.26562 19.2344C10.4996 19.2344 11.5 18.234 11.5 17C11.5 15.766 10.4996 14.7656 9.26562 14.7656C8.03161 14.7656 7.03125 15.766 7.03125 17C7.03125 18.234 8.03161 19.2344 9.26562 19.2344Z" fill="black"/>
<path d="M33.5 17C33.5 7.89062 26.1094 0.5 17 0.5C7.89062 0.5 0.5 7.89062 0.5 17C0.5 26.1094 7.89062 33.5 17 33.5C26.1094 33.5 33.5 26.1094 33.5 17Z" stroke="black" stroke-miterlimit="10"/>
</svg>
