<svg width="36" height="40" viewBox="0 0 36 40" fill="none" xmlns="http://www.w3.org/2000/svg">
<path d="M18 19.9998C23.0627 19.9998 27.1667 15.8958 27.1667 10.8332C27.1667 5.77056 23.0627 1.6665 18 1.6665C12.9374 1.6665 8.83337 5.77056 8.83337 10.8332C8.83337 15.8958 12.9374 19.9998 18 19.9998Z" stroke="black" stroke-width="2"/>
<path d="M27.1667 23.6665H27.8121C29.1524 23.6669 30.4464 24.1567 31.4511 25.0439C32.4557 25.931 33.1019 27.1545 33.2681 28.4845L33.9849 34.2118C34.0494 34.7278 34.0034 35.2516 33.85 35.7484C33.6965 36.2452 33.4392 36.7037 33.095 37.0935C32.7509 37.4832 32.3278 37.7953 31.8538 38.0091C31.3797 38.2228 30.8657 38.3333 30.3457 38.3332H5.6544C5.13444 38.3333 4.62039 38.2228 4.14639 38.0091C3.67238 37.7953 3.24926 37.4832 2.90509 37.0935C2.56093 36.7037 2.3036 36.2452 2.15018 35.7484C1.99676 35.2516 1.95076 34.7278 2.01524 34.2118L2.73024 28.4845C2.89651 27.1539 3.54317 25.9299 4.5486 25.0426C5.55403 24.1554 6.84896 23.666 8.1899 23.6665H8.8334" stroke="black" stroke-width="2" stroke-linecap="round" stroke-linejoin="round"/>
</svg>
